<svg xmlns="http://www.w3.org/2000/svg" viewBox="0 0 42.88 42.82"><defs><style>.cls-1{fill:#010101;}</style></defs><title>Asset 1</title><g id="Layer_2" data-name="Layer 2"><g id="Layer_1-2" data-name="Layer 1"><path class="cls-1" d="M10.67,40a21.1,21.1,0,0,1-7.8-7.81A20.92,20.92,0,0,1,0,21.41,21,21,0,0,1,2.87,10.67,21.37,21.37,0,0,1,21.41,0,21,21,0,0,1,32.14,2.87,21.33,21.33,0,0,1,40,10.67a20.91,20.91,0,0,1,2.9,10.74A20.85,20.85,0,0,1,40,32.14,21.28,21.28,0,0,1,32.14,40a21,21,0,0,1-10.73,2.87A21,21,0,0,1,10.67,40ZM7.44,20.07H12V28.6a1,1,0,0,0,.3.74,1,1,0,0,0,.73.3H23.48l-3.23-3.29H15.31V20.07h4.57l-6.22-6.84Zm12-6.9,3.23,3.3h4.94v6.28H22.93l6.28,6.83,6.23-6.83H30.86V14.21a1,1,0,0,0-.3-.73,1,1,0,0,0-.74-.31Z"/></g></g></svg>