<svg xmlns="http://www.w3.org/2000/svg" viewBox="0 0 42.82 42.82"><defs><style>.cls-1{fill:#010101;}</style></defs><title>Asset 2</title><g id="Layer_2" data-name="Layer 2"><g id="Layer_1-2" data-name="Layer 1"><path class="cls-1" d="M32.23,2.93A21.66,21.66,0,0,1,40,10.83a21.29,21.29,0,0,1,2.87,10.82,20.42,20.42,0,0,1-2.9,10.61A21.34,21.34,0,0,1,32.11,40a21,21,0,0,1-10.7,2.84A21.35,21.35,0,0,1,2.87,32.14,21,21,0,0,1,0,21.41,20.83,20.83,0,0,1,2.9,10.64,21.65,21.65,0,0,1,21.65,0,20.11,20.11,0,0,1,32.23,2.93ZM8.29,12a1.09,1.09,0,0,0-.36.79V30a1,1,0,0,0,.36.79,1,1,0,0,0,.74.31H33.79a1,1,0,0,0,.73-.31,1.09,1.09,0,0,0,.31-.79V12.81a1.39,1.39,0,0,0-.31-.79,1,1,0,0,0-.73-.31H9A1,1,0,0,0,8.29,12ZM10,15.37l7.14,6.22L10,28Zm1.77-1.16H31l-9.63,8.48ZM12,29l6.7-6.1,2,1.83,1.34.06,2.07-1.89L30.74,29Zm20.79-1-7.13-6.41,7.13-6.22Z"/></g></g></svg>