<svg xmlns="http://www.w3.org/2000/svg" viewBox="0 0 42.88 42.88"><defs><style>.cls-1{fill:#010101;}</style></defs><title>Asset 3</title><g id="Layer_2" data-name="Layer 2"><g id="Layer_1-2" data-name="Layer 1"><path class="cls-1" d="M32.29,2.93A21.66,21.66,0,0,1,40,10.83a21.29,21.29,0,0,1,2.87,10.82A20.42,20.42,0,0,1,40,32.26,21.49,21.49,0,0,1,32.17,40a20.85,20.85,0,0,1-10.7,2.87A20.91,20.91,0,0,1,10.73,40,21.56,21.56,0,0,1,2.9,32.14,20.85,20.85,0,0,1,0,21.41,20.67,20.67,0,0,1,2.93,10.64a21.56,21.56,0,0,1,7.9-7.77A21.4,21.4,0,0,1,21.71,0,20.11,20.11,0,0,1,32.29,2.93ZM10.64,10.64a2.87,2.87,0,0,0-.88,2.11V30.13a2.85,2.85,0,0,0,.88,2.1,2.88,2.88,0,0,0,2.11.89H30.13a3,3,0,0,0,3-3V12.75a3,3,0,0,0-3-3H12.75A2.87,2.87,0,0,0,10.64,10.64ZM30.22,30.16a.89.89,0,0,1-.64.27H13.3a1,1,0,0,1-.71-.27.89.89,0,0,1-.27-.64V19.64h2.2a5.23,5.23,0,0,0-.31,2,6.64,6.64,0,0,0,2.11,5,7.08,7.08,0,0,0,5.15,2.05,7.08,7.08,0,0,0,5.15-2.05,6.64,6.64,0,0,0,2.11-5,5.43,5.43,0,0,0-.31-2H30.5v9.88A.9.9,0,0,1,30.22,30.16Zm-5.43-12a4.33,4.33,0,0,1,1.38,3.23,4.24,4.24,0,0,1-1.38,3.2,4.86,4.86,0,0,1-6.64,0,4.24,4.24,0,0,1-1.38-3.2,4.33,4.33,0,0,1,1.38-3.23,4.76,4.76,0,0,1,6.64,0Zm5.4-5.56a1,1,0,0,1,.31.74v2.56a1.06,1.06,0,0,1-1,1H26.78a1,1,0,0,1-.74-.31,1,1,0,0,1-.3-.73V13.36a1,1,0,0,1,1-1h2.68A1,1,0,0,1,30.19,12.62Z"/></g></g></svg>